<?xml version="1.0" encoding="utf-8"?>
<!-- Generator: Adobe Illustrator 21.1.0, SVG Export Plug-In . SVG Version: 6.00 Build 0)  -->
<svg xmlns:cc="http://web.resource.org/cc/"
	 xmlns:dc="http://purl.org/dc/elements/1.1/" xmlns:inkscape="http://www.inkscape.org/namespaces/inkscape" xmlns:rdf="http://www.w3.org/1999/02/22-rdf-syntax-ns#" xmlns:sodipodi="http://inkscape.sourceforge.net/DTD/sodipodi-0.dtd" xmlns:svg="http://www.w3.org/2000/svg" xmlns:xlink="http://www.w3.org/1999/xlink" version="1.1" id="svg2" inkscape:version="0.43" sodipodi:docbase="/home/sdeibel" sodipodi:docname="logo-python-generic.svg"
	 sodipodi:version="0.32" xmlns="http://www.w3.org/2000/svg" x="0px" y="0px" viewBox="0 0 80 80.2"
	 style="enable-background:new 0 0 80 80.2;" xml:space="preserve">
<style type="text/css">
	.st0{fill:#0082D7;}
	.st1{fill:url(#path1948_1_);}
	.st2{fill:url(#path1950_1_);}
</style>
<sodipodi:namedview  bordercolor="#666666" borderopacity="1.0" id="base" inkscape:current-layer="svg2" inkscape:cx="243.02499" inkscape:cy="71.887497" inkscape:pageopacity="0.0" inkscape:pageshadow="2" inkscape:window-height="543" inkscape:window-width="791" inkscape:window-x="0" inkscape:window-y="0" inkscape:zoom="1.4340089" pagecolor="#ffffff">
	</sodipodi:namedview>
<g>
	<g id="Symbols">
		<g id="bittrex-logo-mark">
			<path id="Logo-Mark" class="st0" d="M24.2,12.8v8.5h5.3v-3.2h31.9v31.9H29.6V32.9h-5.3v22.5h42.5V12.8H24.2z M13.2,24.8v42.6
				h42.5v-8.8h-5.3V62H18.5V30.1h31.9v16.8h5.3V24.8H13.2z"/>
		</g>
	</g>
	<g id="g2303">
		
			<linearGradient id="path1948_1_" gradientUnits="userSpaceOnUse" x1="264.9914" y1="-782.2756" x2="312.6835" y2="-823.3083" gradientTransform="matrix(0.5625 0 0 -0.568 -150.2616 -442.9106)">
			<stop  offset="0" style="stop-color:#5A9FD4"/>
			<stop  offset="1" style="stop-color:#306998"/>
		</linearGradient>
		<path id="path1948" class="st1" d="M24,0c-2,0-3.9,0.2-5.6,0.5c-5,0.9-5.9,2.7-5.9,6.1V11h11.7v1.5H12.6H8.2c-3.4,0-6.4,2-7.3,5.9
			c-1.1,4.5-1.1,7.3,0,11.9c0.8,3.5,2.8,5.9,6.2,5.9h4V31c0-3.9,3.3-7.3,7.3-7.3h11.7c3.3,0,5.9-2.7,5.9-6V6.6
			c0-3.2-2.7-5.6-5.9-6.1C28.1,0.1,26,0,24,0z M17.7,3.6c1.2,0,2.2,1,2.2,2.2c0,1.2-1,2.2-2.2,2.2c-1.2,0-2.2-1-2.2-2.2
			C15.5,4.6,16.5,3.6,17.7,3.6z"/>
		
			<linearGradient id="path1950_1_" gradientUnits="userSpaceOnUse" x1="386.8855" y1="-902.7363" x2="369.8547" y2="-878.6407" gradientTransform="matrix(0.5625 0 0 -0.568 -150.2616 -442.9106)">
			<stop  offset="0" style="stop-color:#FFD43B"/>
			<stop  offset="1" style="stop-color:#FFE873"/>
		</linearGradient>
		<path id="path1950" class="st2" d="M68.8,43.5v5.2c0,4-3.4,7.4-7.3,7.4H49.8c-3.2,0-5.9,2.7-5.9,6v11.2c0,3.2,2.8,5,5.9,6
			c3.7,1.1,7.3,1.3,11.7,0c3-0.9,5.9-2.6,5.9-6v-4.5H55.7v-1.5h11.7h5.9c3.4,0,4.7-2.4,5.9-5.9c1.2-3.7,1.2-7.2,0-11.9
			c-0.8-3.4-2.5-5.9-5.9-5.9H68.8z M62.2,71.8c1.2,0,2.2,1,2.2,2.2c0,1.2-1,2.2-2.2,2.2c-1.2,0-2.2-1-2.2-2.2
			C60,72.8,61,71.8,62.2,71.8z"/>
	</g>
</g>
</svg>
